<?xml version="1.0" encoding="utf-8"?>
<!-- Generator: Adobe Illustrator 27.5.0, SVG Export Plug-In . SVG Version: 6.00 Build 0)  -->
<svg version="1.1" id="Layer_1" xmlns="http://www.w3.org/2000/svg" xmlns:xlink="http://www.w3.org/1999/xlink" x="0px" y="0px"
	 viewBox="0 0 238.534 193.491" style="enable-background:new 0 0 238.534 193.491;" xml:space="preserve">
<g>
	<g>
		<path style="fill:#FFFFFF;" d="M234.832,11.876c-0.013-0.061-0.027-0.12-0.041-0.18c-0.018-0.066-0.035-0.133-0.055-0.199
			c-0.052-0.179-0.104-0.327-0.147-0.445c-0.05-0.14-0.137-0.351-0.199-0.484c-0.075-0.163-0.156-0.319-0.247-0.472
			c-0.068-0.116-0.146-0.238-0.223-0.348c-0.182-0.266-0.371-0.504-0.58-0.726c-0.034-0.037-0.069-0.072-0.105-0.107
			c-0.078-0.078-0.169-0.164-0.262-0.243c-0.07-0.064-0.142-0.126-0.203-0.176c-0.132-0.11-0.27-0.218-0.404-0.308
			c-0.315-0.215-0.593-0.354-0.727-0.415c-0.124-0.063-0.254-0.121-0.374-0.17c-0.553-0.225-1.134-0.363-1.733-0.411
			c-0.163-0.018-0.327-0.025-0.489-0.025H81.882c-0.75,0-1.482,0.139-2.196,0.422L41.271,22.96
			c-0.034,0.015-0.068,0.028-0.103,0.043L12.032,34.662v0.001c-0.133,0.053-0.264,0.111-0.391,0.176
			c-0.16,0.081-0.316,0.17-0.471,0.269c-0.282,0.167-0.643,0.41-1.01,0.76c-0.291,0.276-0.494,0.537-0.602,0.683
			c-0.188,0.239-0.43,0.582-0.639,1.016c-0.174,0.356-0.274,0.664-0.333,0.864c-0.097,0.315-0.167,0.633-0.209,0.944
			c-0.041,0.26-0.063,0.523-0.063,0.777v144.524c0,3.261,2.652,5.913,5.913,5.913h147.156c0.75,0,1.483-0.14,2.197-0.422
			l67.657-27.074c0.22-0.088,0.432-0.191,0.635-0.31c0.426-0.23,0.814-0.508,1.137-0.806c0.169-0.152,0.319-0.309,0.423-0.43
			c0.028-0.032,0.058-0.064,0.086-0.098c0.305-0.354,0.565-0.745,0.772-1.148c0.089-0.17,0.206-0.428,0.274-0.607
			c0.26-0.682,0.391-1.386,0.391-2.091V13.079c0-0.254-0.02-0.473-0.041-0.65C234.898,12.241,234.869,12.056,234.832,11.876z"/>
		<path style="fill:#F1F1F1;" d="M234.4,11.488c-0.012-0.06-0.025-0.12-0.04-0.181c-0.017-0.064-0.035-0.132-0.056-0.198
			c-0.053-0.179-0.102-0.327-0.146-0.446c-0.05-0.14-0.14-0.35-0.201-0.483c-0.075-0.164-0.156-0.32-0.246-0.472
			c-0.069-0.116-0.146-0.237-0.224-0.349c-0.182-0.264-0.373-0.5-0.579-0.725c-0.034-0.038-0.069-0.072-0.104-0.107
			c-0.078-0.079-0.17-0.163-0.261-0.244c-0.072-0.063-0.143-0.125-0.204-0.176c-0.132-0.109-0.273-0.216-0.405-0.306
			c-0.316-0.215-0.593-0.353-0.726-0.415c-0.124-0.063-0.255-0.122-0.374-0.171c-0.552-0.225-1.136-0.357-1.733-0.412
			c-0.163-0.015-0.328-0.025-0.489-0.025H81.45c-0.749,0-1.482,0.14-2.195,0.423L40.84,22.572c-0.033,0.015-0.067,0.028-0.102,0.042
			L11.601,34.273v0.001c-0.132,0.054-0.263,0.112-0.39,0.177c-0.16,0.08-0.314,0.172-0.471,0.268
			c-0.279,0.173-0.642,0.41-1.01,0.761c-0.291,0.275-0.493,0.539-0.603,0.683c-0.184,0.242-0.429,0.582-0.639,1.016
			c-0.173,0.356-0.273,0.664-0.334,0.865c-0.094,0.313-0.162,0.634-0.208,0.942c-0.039,0.263-0.063,0.524-0.063,0.777v144.524
			c0,3.261,2.652,5.914,5.913,5.914h147.155c0.751,0,1.483-0.141,2.198-0.423l67.657-27.072c0.219-0.09,0.429-0.195,0.635-0.311
			c0.422-0.238,0.813-0.509,1.137-0.806c0.169-0.154,0.321-0.309,0.424-0.429c0.027-0.033,0.057-0.065,0.085-0.099
			c0.304-0.355,0.563-0.746,0.771-1.148c0.089-0.17,0.207-0.427,0.275-0.607c0.26-0.683,0.39-1.386,0.39-2.091V12.691
			c0-0.253-0.021-0.472-0.04-0.65C234.464,11.854,234.439,11.668,234.4,11.488z"/>
		<path style="fill:#E2E2E2;" d="M233.971,11.101c-0.013-0.06-0.026-0.12-0.041-0.179c-0.017-0.067-0.036-0.134-0.055-0.199
			c-0.051-0.18-0.105-0.328-0.148-0.446c-0.051-0.14-0.137-0.352-0.199-0.485c-0.076-0.161-0.156-0.317-0.246-0.471
			c-0.07-0.117-0.148-0.237-0.224-0.348c-0.182-0.265-0.372-0.504-0.58-0.727c-0.034-0.036-0.069-0.071-0.105-0.105
			c-0.079-0.079-0.17-0.164-0.262-0.244c-0.072-0.063-0.142-0.127-0.203-0.177c-0.133-0.108-0.27-0.216-0.404-0.307
			c-0.315-0.215-0.593-0.352-0.727-0.414c-0.125-0.063-0.255-0.122-0.375-0.172c-0.553-0.225-1.134-0.357-1.731-0.411
			c-0.165-0.015-0.328-0.025-0.49-0.025H81.021c-0.749,0-1.482,0.14-2.196,0.423L40.41,22.186c-0.035,0.015-0.068,0.026-0.103,0.043
			L11.171,33.887v0.001C11.038,33.94,10.907,34,10.78,34.064c-0.159,0.08-0.315,0.17-0.472,0.267c-0.279,0.172-0.642,0.41-1.01,0.76
			c-0.291,0.276-0.492,0.539-0.602,0.684c-0.184,0.242-0.43,0.582-0.639,1.015c-0.173,0.356-0.274,0.665-0.334,0.865
			c-0.094,0.314-0.163,0.635-0.208,0.943c-0.039,0.262-0.063,0.524-0.063,0.778V183.9c0,3.261,2.651,5.913,5.912,5.913h147.156
			c0.75,0,1.483-0.138,2.197-0.421l67.658-27.073c0.219-0.088,0.429-0.195,0.635-0.311c0.421-0.237,0.812-0.509,1.137-0.807
			c0.167-0.153,0.316-0.311,0.421-0.429c0.028-0.032,0.058-0.064,0.087-0.098c0.305-0.354,0.564-0.745,0.773-1.149
			c0.088-0.169,0.207-0.427,0.274-0.606c0.26-0.683,0.391-1.386,0.391-2.091V12.304c0-0.253-0.02-0.473-0.041-0.65
			C234.033,11.465,234.009,11.279,233.971,11.101z"/>
		<path style="fill:#D4D4D4;" d="M233.54,10.713c-0.014-0.061-0.027-0.121-0.041-0.18c-0.017-0.066-0.036-0.133-0.056-0.199
			c-0.055-0.179-0.103-0.327-0.146-0.447c-0.051-0.139-0.139-0.35-0.2-0.483c-0.075-0.162-0.156-0.319-0.247-0.472
			c-0.067-0.117-0.146-0.238-0.223-0.348c-0.182-0.266-0.372-0.502-0.58-0.726c-0.034-0.037-0.069-0.073-0.105-0.107
			c-0.078-0.077-0.169-0.164-0.261-0.244c-0.07-0.064-0.142-0.125-0.204-0.177c-0.132-0.108-0.271-0.216-0.403-0.306
			c-0.315-0.215-0.594-0.354-0.727-0.415c-0.124-0.063-0.254-0.121-0.374-0.17c-0.553-0.225-1.136-0.356-1.733-0.412
			c-0.163-0.016-0.327-0.025-0.489-0.025H80.59c-0.75,0-1.483,0.14-2.196,0.423L39.979,21.797c-0.034,0.015-0.068,0.027-0.104,0.043
			L10.739,33.499l0,0c-0.133,0.054-0.263,0.113-0.39,0.177c-0.16,0.081-0.315,0.172-0.471,0.268c-0.281,0.172-0.643,0.41-1.01,0.761
			c-0.291,0.276-0.492,0.538-0.603,0.683c-0.185,0.242-0.428,0.582-0.639,1.016c-0.173,0.356-0.272,0.664-0.333,0.864
			C7.201,37.58,7.132,37.9,7.086,38.21c-0.038,0.262-0.064,0.523-0.064,0.778v144.524c0,3.259,2.653,5.912,5.914,5.912h147.155
			c0.75,0,1.483-0.139,2.198-0.421l67.656-27.074c0.219-0.088,0.431-0.194,0.636-0.31c0.422-0.236,0.811-0.511,1.136-0.807
			c0.169-0.154,0.318-0.31,0.424-0.429c0.028-0.032,0.058-0.064,0.086-0.098c0.304-0.354,0.563-0.746,0.772-1.148
			c0.088-0.17,0.205-0.428,0.274-0.607c0.26-0.683,0.39-1.386,0.39-2.092V11.915c0-0.253-0.021-0.472-0.04-0.649
			C233.604,11.078,233.578,10.892,233.54,10.713z"/>
		<path style="fill:#C5C5C5;" d="M233.109,10.325c-0.013-0.061-0.026-0.12-0.041-0.18c-0.018-0.067-0.035-0.134-0.056-0.198
			c-0.054-0.179-0.102-0.328-0.145-0.446c-0.052-0.14-0.14-0.351-0.201-0.485c-0.074-0.162-0.156-0.318-0.246-0.471
			c-0.068-0.116-0.146-0.237-0.224-0.348c-0.183-0.264-0.371-0.502-0.58-0.726c-0.033-0.037-0.067-0.072-0.104-0.107
			c-0.079-0.077-0.17-0.162-0.262-0.243c-0.071-0.063-0.142-0.127-0.203-0.176c-0.133-0.109-0.27-0.217-0.405-0.308
			c-0.316-0.214-0.593-0.352-0.726-0.415c-0.125-0.063-0.254-0.121-0.375-0.17c-0.551-0.226-1.134-0.357-1.731-0.411
			c-0.165-0.016-0.328-0.026-0.49-0.026H80.158c-0.748,0-1.482,0.14-2.195,0.423L39.549,21.41c-0.034,0.014-0.068,0.026-0.102,0.042
			L10.309,33.111v0.001c-0.132,0.053-0.263,0.111-0.39,0.176c-0.159,0.081-0.314,0.172-0.47,0.269
			c-0.279,0.173-0.642,0.41-1.01,0.759c-0.292,0.277-0.493,0.54-0.603,0.684c-0.186,0.242-0.429,0.583-0.639,1.016
			c-0.174,0.357-0.274,0.664-0.334,0.864c-0.095,0.316-0.162,0.635-0.208,0.944c-0.039,0.261-0.064,0.523-0.064,0.777v144.524
			c0,3.261,2.652,5.913,5.913,5.913H159.66c0.751,0,1.483-0.14,2.198-0.422l67.657-27.073c0.22-0.089,0.43-0.194,0.635-0.311
			c0.423-0.238,0.813-0.51,1.137-0.806c0.168-0.153,0.319-0.31,0.423-0.43c0.028-0.032,0.059-0.064,0.087-0.097
			c0.303-0.355,0.561-0.748,0.77-1.15c0.089-0.17,0.207-0.427,0.275-0.606c0.259-0.682,0.39-1.386,0.39-2.091V11.528
			c0-0.254-0.021-0.473-0.039-0.65C233.173,10.691,233.148,10.505,233.109,10.325z"/>
		<path style="fill:#B7B7B7;" d="M232.68,9.939c-0.014-0.061-0.026-0.12-0.042-0.18c-0.016-0.066-0.035-0.133-0.055-0.199
			c-0.052-0.18-0.103-0.328-0.146-0.446c-0.051-0.14-0.139-0.351-0.2-0.484c-0.076-0.163-0.156-0.319-0.246-0.472
			c-0.068-0.116-0.148-0.236-0.224-0.348c-0.183-0.264-0.372-0.503-0.58-0.726c-0.034-0.037-0.068-0.072-0.104-0.106
			c-0.078-0.078-0.17-0.163-0.261-0.244c-0.072-0.063-0.143-0.126-0.203-0.176c-0.133-0.11-0.27-0.216-0.405-0.307
			c-0.315-0.214-0.593-0.353-0.727-0.415c-0.124-0.063-0.253-0.121-0.374-0.171c-0.553-0.225-1.135-0.357-1.732-0.411
			c-0.164-0.015-0.327-0.025-0.49-0.025H79.729c-0.749,0-1.481,0.14-2.196,0.423L39.119,21.022
			c-0.035,0.014-0.069,0.027-0.103,0.042L9.879,32.724v0.001c-0.133,0.053-0.264,0.112-0.391,0.177
			c-0.159,0.08-0.314,0.171-0.471,0.268c-0.278,0.173-0.642,0.41-1.01,0.76c-0.291,0.276-0.491,0.538-0.602,0.683
			c-0.185,0.242-0.428,0.583-0.639,1.016c-0.173,0.357-0.272,0.664-0.333,0.865c-0.095,0.313-0.163,0.634-0.208,0.943
			c-0.039,0.262-0.063,0.523-0.063,0.777v144.523c0,3.262,2.652,5.914,5.912,5.914H159.23c0.75,0,1.483-0.14,2.197-0.422
			l67.658-27.073c0.22-0.088,0.429-0.194,0.635-0.31c0.421-0.237,0.813-0.51,1.137-0.807c0.167-0.153,0.317-0.31,0.422-0.429
			c0.028-0.032,0.059-0.064,0.087-0.098c0.304-0.354,0.564-0.747,0.771-1.149c0.088-0.169,0.206-0.427,0.274-0.607
			c0.26-0.682,0.391-1.386,0.391-2.09V11.142c0-0.254-0.021-0.473-0.04-0.651C232.743,10.303,232.718,10.117,232.68,9.939z"/>
		<path style="fill:#A8A8A8;" d="M232.247,9.55c-0.012-0.061-0.025-0.119-0.04-0.18c-0.017-0.066-0.035-0.133-0.055-0.199
			c-0.051-0.178-0.105-0.327-0.148-0.446c-0.05-0.139-0.137-0.35-0.2-0.483c-0.074-0.163-0.155-0.32-0.245-0.472
			c-0.069-0.117-0.148-0.237-0.225-0.348c-0.182-0.264-0.371-0.503-0.578-0.726c-0.035-0.037-0.069-0.072-0.104-0.107
			c-0.078-0.08-0.171-0.162-0.262-0.242c-0.071-0.064-0.143-0.126-0.204-0.177c-0.133-0.108-0.272-0.217-0.404-0.307
			c-0.316-0.214-0.594-0.354-0.727-0.415c-0.124-0.063-0.254-0.122-0.374-0.172c-0.551-0.227-1.136-0.352-1.733-0.41
			c-0.163-0.015-0.327-0.026-0.489-0.026H79.297c-0.749,0-1.482,0.141-2.195,0.423L38.688,20.634
			c-0.034,0.015-0.068,0.027-0.103,0.043L9.449,32.336l0,0c-0.134,0.054-0.265,0.113-0.392,0.177
			c-0.16,0.08-0.314,0.171-0.471,0.268c-0.279,0.173-0.643,0.41-1.01,0.76c-0.291,0.277-0.493,0.539-0.603,0.684
			c-0.185,0.242-0.429,0.582-0.639,1.017c-0.172,0.356-0.273,0.663-0.333,0.863c-0.095,0.315-0.163,0.634-0.209,0.943
			c-0.038,0.262-0.063,0.525-0.063,0.779v144.524c0,3.26,2.653,5.912,5.913,5.912H158.8c0.75,0,1.483-0.14,2.197-0.422
			l67.657-27.073c0.219-0.089,0.43-0.195,0.635-0.31c0.422-0.237,0.813-0.509,1.137-0.806c0.169-0.154,0.319-0.309,0.424-0.43
			c0.027-0.032,0.057-0.064,0.085-0.097c0.307-0.352,0.563-0.747,0.772-1.15c0.088-0.169,0.206-0.426,0.275-0.605
			c0.258-0.684,0.392-1.387,0.392-2.092V10.753c0-0.254-0.023-0.472-0.042-0.649C232.311,9.916,232.283,9.729,232.247,9.55z"/>
		<path style="fill:#9A9A9A;" d="M231.817,9.162c-0.013-0.061-0.027-0.12-0.042-0.179c-0.017-0.067-0.034-0.134-0.055-0.2
			c-0.053-0.178-0.103-0.327-0.146-0.445c-0.052-0.14-0.14-0.351-0.201-0.484c-0.074-0.162-0.156-0.318-0.246-0.471
			c-0.069-0.117-0.146-0.239-0.223-0.349c-0.183-0.265-0.372-0.502-0.581-0.726c-0.034-0.037-0.067-0.072-0.104-0.107
			c-0.079-0.077-0.17-0.162-0.262-0.243c-0.071-0.063-0.143-0.126-0.203-0.177c-0.132-0.109-0.271-0.216-0.405-0.307
			c-0.315-0.214-0.592-0.353-0.726-0.415c-0.125-0.063-0.254-0.121-0.375-0.17c-0.551-0.225-1.134-0.355-1.731-0.411
			c-0.165-0.016-0.328-0.025-0.49-0.025H78.866c-0.748,0-1.481,0.139-2.195,0.422L38.257,20.246
			c-0.034,0.016-0.068,0.027-0.103,0.043L9.017,31.949l0,0c-0.133,0.053-0.263,0.111-0.389,0.176
			c-0.16,0.082-0.315,0.173-0.472,0.269c-0.279,0.172-0.642,0.41-1.01,0.76c-0.29,0.276-0.492,0.539-0.602,0.683
			c-0.186,0.242-0.429,0.583-0.639,1.016c-0.174,0.357-0.274,0.665-0.334,0.864c-0.095,0.314-0.163,0.635-0.208,0.944
			C5.325,36.921,5.3,37.184,5.3,37.438v144.525c0,3.261,2.652,5.913,5.913,5.913h147.155c0.75,0,1.483-0.14,2.198-0.422
			l67.657-27.074c0.22-0.088,0.43-0.194,0.635-0.31c0.422-0.237,0.813-0.51,1.137-0.806c0.168-0.153,0.318-0.311,0.422-0.43
			c0.029-0.033,0.06-0.064,0.088-0.098c0.303-0.354,0.563-0.745,0.771-1.148c0.088-0.171,0.207-0.428,0.276-0.607
			c0.26-0.681,0.389-1.385,0.389-2.091V10.365c0-0.253-0.02-0.473-0.04-0.65C231.881,9.527,231.857,9.342,231.817,9.162z"/>
		<path style="fill:#8B8B8B;" d="M231.387,8.775c-0.013-0.061-0.025-0.121-0.041-0.181c-0.016-0.066-0.035-0.132-0.055-0.198
			c-0.053-0.18-0.104-0.328-0.147-0.446c-0.05-0.14-0.138-0.351-0.199-0.484c-0.076-0.163-0.156-0.319-0.246-0.472
			c-0.07-0.117-0.148-0.237-0.224-0.348c-0.184-0.265-0.372-0.503-0.58-0.726c-0.034-0.037-0.069-0.072-0.105-0.107
			c-0.079-0.079-0.17-0.162-0.261-0.243c-0.072-0.065-0.143-0.126-0.204-0.177c-0.132-0.109-0.27-0.216-0.404-0.307
			c-0.316-0.214-0.593-0.353-0.727-0.415c-0.123-0.063-0.254-0.122-0.373-0.171c-0.551-0.227-1.135-0.355-1.732-0.41
			c-0.164-0.016-0.328-0.025-0.49-0.025H78.437c-0.75,0-1.482,0.139-2.196,0.422L37.826,19.859
			c-0.034,0.014-0.068,0.027-0.103,0.042L8.587,31.561v0.001c-0.133,0.052-0.264,0.111-0.391,0.176
			c-0.16,0.082-0.314,0.172-0.472,0.269c-0.278,0.171-0.643,0.41-1.009,0.76c-0.291,0.276-0.491,0.537-0.602,0.682
			c-0.185,0.243-0.43,0.584-0.64,1.017c-0.172,0.356-0.272,0.664-0.333,0.865c-0.096,0.313-0.163,0.634-0.208,0.943
			c-0.038,0.261-0.063,0.523-0.063,0.776v144.524c0,3.262,2.652,5.914,5.912,5.914h147.156c0.75,0,1.483-0.14,2.197-0.423
			l67.658-27.073c0.219-0.088,0.429-0.194,0.634-0.309c0.423-0.236,0.813-0.509,1.137-0.806c0.168-0.153,0.318-0.311,0.423-0.429
			c0.028-0.032,0.057-0.064,0.086-0.098c0.308-0.352,0.563-0.747,0.772-1.149c0.088-0.17,0.206-0.427,0.274-0.607
			c0.26-0.682,0.391-1.386,0.391-2.091V9.979c0-0.254-0.021-0.473-0.041-0.651C231.45,9.14,231.424,8.954,231.387,8.775z"/>
		<path style="fill:#7D7D7D;" d="M230.955,8.387c-0.012-0.061-0.024-0.119-0.039-0.18c-0.017-0.066-0.036-0.133-0.057-0.199
			c-0.052-0.178-0.104-0.328-0.146-0.445c-0.051-0.14-0.137-0.351-0.199-0.484c-0.075-0.163-0.156-0.318-0.247-0.473
			c-0.068-0.115-0.147-0.236-0.224-0.347c-0.183-0.264-0.373-0.501-0.579-0.727c-0.033-0.036-0.068-0.07-0.104-0.106
			c-0.08-0.078-0.171-0.164-0.262-0.244c-0.071-0.063-0.141-0.126-0.202-0.177c-0.132-0.109-0.271-0.217-0.406-0.307
			c-0.316-0.213-0.593-0.354-0.726-0.414c-0.125-0.063-0.254-0.122-0.375-0.171c-0.553-0.224-1.135-0.355-1.732-0.411
			c-0.164-0.015-0.327-0.026-0.489-0.026H78.005c-0.749,0-1.482,0.141-2.194,0.423L37.395,19.472
			c-0.033,0.013-0.067,0.027-0.101,0.043L8.155,31.172v0.002c-0.131,0.054-0.262,0.111-0.39,0.177
			c-0.16,0.081-0.313,0.171-0.471,0.268c-0.278,0.172-0.642,0.41-1.01,0.76c-0.291,0.276-0.493,0.539-0.603,0.684
			c-0.185,0.242-0.429,0.582-0.639,1.015c-0.172,0.357-0.273,0.663-0.333,0.865c-0.094,0.315-0.163,0.633-0.209,0.943
			c-0.038,0.262-0.063,0.524-0.063,0.776v144.524c0,3.262,2.651,5.913,5.913,5.913h147.155c0.751,0,1.484-0.139,2.198-0.422
			l67.657-27.072c0.219-0.088,0.429-0.194,0.635-0.311c0.421-0.237,0.813-0.508,1.137-0.806c0.168-0.153,0.316-0.311,0.422-0.43
			c0.028-0.031,0.058-0.063,0.086-0.098c0.302-0.357,0.564-0.746,0.773-1.148c0.089-0.17,0.205-0.427,0.273-0.607
			c0.26-0.683,0.39-1.387,0.39-2.09V9.591c0-0.255-0.021-0.474-0.04-0.652C231.018,8.751,230.992,8.566,230.955,8.387z"/>
		<path style="fill:#6E6E6E;" d="M230.525,7.999c-0.013-0.06-0.025-0.12-0.041-0.18c-0.017-0.065-0.035-0.133-0.055-0.199
			c-0.052-0.179-0.104-0.326-0.146-0.446c-0.051-0.139-0.138-0.35-0.2-0.483c-0.076-0.164-0.156-0.32-0.246-0.472
			c-0.07-0.118-0.147-0.237-0.225-0.349c-0.182-0.264-0.37-0.502-0.579-0.726c-0.034-0.037-0.069-0.072-0.104-0.107
			c-0.078-0.079-0.171-0.163-0.262-0.243c-0.072-0.063-0.143-0.125-0.205-0.177c-0.131-0.108-0.271-0.217-0.404-0.307
			c-0.315-0.214-0.593-0.353-0.726-0.414c-0.124-0.063-0.255-0.122-0.374-0.171c-0.552-0.226-1.135-0.355-1.732-0.411
			c-0.164-0.016-0.328-0.026-0.491-0.026H77.574c-0.748,0-1.481,0.141-2.194,0.423L36.965,19.083
			c-0.034,0.016-0.068,0.028-0.104,0.043L7.726,30.785v0.001c-0.134,0.053-0.264,0.111-0.391,0.176
			c-0.159,0.08-0.316,0.172-0.472,0.268c-0.279,0.171-0.641,0.41-1.01,0.76c-0.29,0.276-0.491,0.538-0.602,0.683
			c-0.185,0.242-0.429,0.582-0.639,1.017c-0.173,0.355-0.273,0.664-0.334,0.864c-0.095,0.313-0.163,0.634-0.208,0.942
			c-0.039,0.262-0.063,0.525-0.063,0.778v144.524c0,3.26,2.653,5.912,5.914,5.912h147.154c0.75,0,1.484-0.139,2.199-0.421
			l67.656-27.073c0.219-0.089,0.43-0.195,0.636-0.311c0.421-0.237,0.812-0.509,1.136-0.806c0.168-0.154,0.32-0.309,0.423-0.43
			c0.027-0.032,0.058-0.064,0.087-0.098c0.306-0.352,0.563-0.745,0.771-1.148c0.088-0.171,0.206-0.428,0.273-0.608
			c0.257-0.684,0.392-1.385,0.392-2.091V9.202c0-0.253-0.02-0.473-0.041-0.65C230.588,8.364,230.564,8.18,230.525,7.999z"/>
		<path style="fill:#606060;" d="M230.095,7.612c-0.013-0.062-0.026-0.121-0.041-0.181c-0.017-0.066-0.035-0.133-0.055-0.198
			c-0.052-0.18-0.104-0.328-0.147-0.446c-0.05-0.14-0.137-0.35-0.199-0.484c-0.075-0.163-0.156-0.319-0.247-0.472
			c-0.068-0.116-0.146-0.238-0.223-0.348c-0.182-0.266-0.371-0.504-0.58-0.725c-0.034-0.037-0.069-0.072-0.104-0.108
			c-0.078-0.078-0.169-0.164-0.261-0.243c-0.071-0.064-0.143-0.126-0.204-0.176c-0.132-0.11-0.271-0.218-0.404-0.308
			c-0.315-0.215-0.593-0.353-0.727-0.415c-0.124-0.063-0.254-0.121-0.374-0.17c-0.553-0.225-1.134-0.363-1.733-0.411
			c-0.163-0.018-0.327-0.025-0.489-0.025H77.145c-0.75,0-1.482,0.139-2.196,0.422L36.534,18.695
			c-0.034,0.015-0.068,0.028-0.102,0.043L7.295,30.397v0.001c-0.133,0.053-0.264,0.111-0.391,0.176
			c-0.16,0.081-0.316,0.17-0.471,0.268c-0.282,0.167-0.643,0.41-1.01,0.76c-0.291,0.276-0.494,0.537-0.602,0.683
			c-0.188,0.24-0.43,0.582-0.639,1.016c-0.174,0.356-0.274,0.664-0.333,0.865c-0.097,0.313-0.167,0.633-0.209,0.943
			c-0.041,0.26-0.063,0.523-0.063,0.777v144.524c0,3.261,2.652,5.913,5.913,5.913h147.156c0.75,0,1.483-0.14,2.197-0.422
			l67.657-27.074c0.22-0.088,0.432-0.191,0.635-0.31c0.426-0.23,0.814-0.508,1.137-0.806c0.169-0.152,0.319-0.309,0.423-0.43
			c0.028-0.032,0.058-0.064,0.086-0.098c0.305-0.353,0.565-0.745,0.772-1.148c0.089-0.17,0.206-0.428,0.274-0.607
			c0.26-0.682,0.391-1.386,0.391-2.091V8.814c0-0.254-0.02-0.473-0.041-0.65C230.161,7.977,230.132,7.791,230.095,7.612z"/>
	</g>
	<path style="fill:#FFFFFF;" d="M230.095,7.612c-0.013-0.062-0.026-0.121-0.041-0.181c-0.017-0.066-0.035-0.133-0.055-0.198
		c-0.052-0.18-0.104-0.328-0.147-0.446c-0.05-0.14-0.137-0.35-0.199-0.484c-0.075-0.163-0.156-0.319-0.247-0.472
		c-0.068-0.116-0.146-0.238-0.223-0.348c-0.182-0.266-0.371-0.504-0.58-0.725c-0.034-0.037-0.069-0.072-0.104-0.108
		c-0.078-0.078-0.169-0.164-0.261-0.243c-0.071-0.064-0.143-0.126-0.204-0.176c-0.132-0.11-0.271-0.218-0.404-0.308
		c-0.315-0.215-0.593-0.353-0.727-0.415c-0.124-0.063-0.254-0.121-0.374-0.17c-0.553-0.225-1.134-0.363-1.733-0.411
		c-0.163-0.018-0.327-0.025-0.489-0.025H77.145c-0.75,0-1.482,0.139-2.196,0.422L36.534,18.695
		c-0.034,0.015-0.068,0.028-0.102,0.043L7.295,30.397v0.001c-0.133,0.053-0.264,0.111-0.391,0.176
		c-0.16,0.081-0.316,0.17-0.471,0.268c-0.282,0.167-0.643,0.41-1.01,0.76c-0.291,0.276-0.494,0.537-0.602,0.683
		c-0.188,0.24-0.43,0.582-0.639,1.016c-0.174,0.356-0.274,0.664-0.333,0.865c-0.097,0.313-0.167,0.633-0.209,0.943
		c-0.041,0.26-0.063,0.523-0.063,0.777v144.524c0,3.261,2.652,5.913,5.913,5.913h147.156c0.75,0,1.483-0.14,2.197-0.422
		l67.657-27.074c0.22-0.088,0.432-0.191,0.635-0.31c0.426-0.23,0.814-0.508,1.137-0.806c0.169-0.152,0.319-0.309,0.423-0.43
		c0.028-0.032,0.058-0.064,0.086-0.098c0.305-0.353,0.565-0.745,0.772-1.148c0.089-0.17,0.206-0.428,0.274-0.607
		c0.26-0.682,0.391-1.386,0.391-2.091V8.814c0-0.254-0.02-0.473-0.041-0.65C230.161,7.977,230.132,7.791,230.095,7.612z"/>
	<g>
		<g>
			<g>
				<g>
					<g>
						<rect x="77.145" y="8.814" style="fill:#F9A467;" width="147.161" height="144.524"/>
						<path style="fill:#5F2D25;" d="M224.306,154.402H77.145c-0.588,0-1.063-0.478-1.063-1.064V8.814
							c0-0.587,0.476-1.063,1.063-1.063h147.161c0.587,0,1.063,0.476,1.063,1.063v144.524
							C225.368,153.925,224.893,154.402,224.306,154.402z M78.209,152.276h145.034V9.878H78.209V152.276z"/>
					</g>
				</g>
				<g>
					<polygon style="fill:#FED095;" points="9.49,180.411 77.145,153.339 77.145,8.814 9.49,35.887 					"/>
					<path style="fill:#5E2C00;" d="M11.709,37.39v139.746l63.219-25.299V12.091L11.709,37.39z"/>
				</g>
				<g>
					<g>
						<rect x="9.49" y="35.887" style="fill:#FED095;" width="147.156" height="144.524"/>
						<path style="fill:#5F2D25;" d="M156.646,181.474H9.49c-0.587,0-1.063-0.475-1.063-1.063V35.887
							c0-0.585,0.476-1.063,1.063-1.063h147.156c0.587,0,1.063,0.478,1.063,1.063v144.524
							C157.709,180.999,157.233,181.474,156.646,181.474z M10.554,179.349h145.029V36.949H10.554V179.349z"/>
					</g>
				</g>
				<polygon style="fill:#FED095;" points="152.418,177.238 13.295,177.238 13.295,93.318 19.213,170.843 				"/>
				<g>
					<g>
						<polygon style="fill:#F9A467;" points="156.646,180.411 224.306,153.339 224.306,8.814 156.646,35.887 						"/>
						<path style="fill:#5F2D25;" d="M156.646,181.474c-0.209,0-0.417-0.06-0.595-0.183c-0.292-0.197-0.469-0.526-0.469-0.88V35.887
							c0-0.434,0.266-0.824,0.669-0.986l67.659-27.073c0.324-0.131,0.697-0.092,0.991,0.107c0.292,0.197,0.466,0.528,0.466,0.88
							v144.524c0,0.435-0.265,0.824-0.668,0.986L157.042,181.4C156.915,181.449,156.781,181.474,156.646,181.474z M157.709,36.607
							v142.234l65.534-26.223V10.385L157.709,36.607z"/>
					</g>
				</g>
			</g>
		</g>
		<g>
			<g>
				<polygon style="fill:#FED095;" points="156.646,35.887 224.306,8.814 77.145,8.814 9.49,35.887 				"/>
				<path style="fill:#5F2D25;" d="M156.646,36.949H9.49c-0.51,0-0.947-0.36-1.044-0.86C8.35,35.588,8.623,35.09,9.097,34.9
					L76.75,7.827c0.127-0.051,0.26-0.075,0.395-0.075h147.161c0.51,0,0.947,0.362,1.044,0.862c0.097,0.5-0.176,0.998-0.649,1.187
					l-67.658,27.074C156.915,36.925,156.782,36.949,156.646,36.949z M15.008,34.824h141.434l62.348-24.946H77.349L15.008,34.824z"/>
			</g>
		</g>
		<g>
			<g>
				<polygon style="fill:#DD815F;" points="38.729,24.188 183.192,25.267 183.192,47.6 187.783,41.068 190.479,44.347 
					193.378,39.904 195.777,42.604 198.276,38.271 200.723,40.368 200.723,18.252 53.568,18.252 				"/>
				<path style="fill:#5F2D25;" d="M183.192,48.662c-0.108,0-0.216-0.017-0.322-0.051c-0.441-0.139-0.74-0.55-0.74-1.012V26.323
					L38.721,25.25c-0.507-0.004-0.941-0.367-1.036-0.866c-0.095-0.5,0.179-0.996,0.65-1.184l14.84-5.935
					c0.125-0.051,0.26-0.076,0.394-0.076h147.154c0.587,0,1.063,0.476,1.063,1.064v22.116c0,0.415-0.242,0.794-0.617,0.967
					c-0.377,0.174-0.82,0.111-1.137-0.158l-1.475-1.265l-1.858,3.224c-0.17,0.297-0.474,0.492-0.813,0.527
					c-0.349,0.036-0.677-0.097-0.903-0.353l-1.475-1.661l-2.141,3.278c-0.184,0.282-0.492,0.461-0.831,0.479
					c-0.33,0.014-0.663-0.125-0.88-0.386l-1.807-2.2l-3.787,5.389C183.857,48.498,183.531,48.662,183.192,48.662z M44.147,23.164
					l139.053,1.04c0.583,0.004,1.055,0.479,1.055,1.063V44.24l2.658-3.783c0.191-0.271,0.498-0.438,0.83-0.449
					c0.339-0.019,0.649,0.13,0.862,0.385l1.774,2.16l2.109-3.23c0.18-0.278,0.479-0.454,0.811-0.479
					c0.345-0.027,0.653,0.108,0.873,0.354l1.419,1.6l1.765-3.057c0.157-0.274,0.43-0.465,0.74-0.517
					c0.318-0.052,0.633,0.036,0.871,0.24l0.692,0.592V19.315H53.773L44.147,23.164z"/>
			</g>
		</g>
		<g>
			<g>
				<polygon style="fill:#DD815F;" points="183.192,25.267 183.192,47.6 187.783,41.068 190.479,44.347 193.378,39.904 
					195.777,42.604 198.276,38.271 200.723,40.368 200.723,18.252 				"/>
				<path style="fill:#5F2D25;" d="M183.192,48.662c-0.108,0-0.216-0.017-0.322-0.051c-0.441-0.139-0.74-0.55-0.74-1.012V25.267
					c0-0.434,0.263-0.824,0.667-0.986l17.531-7.016c0.324-0.131,0.697-0.092,0.991,0.107c0.29,0.197,0.466,0.527,0.466,0.88v22.116
					c0,0.415-0.242,0.794-0.617,0.967c-0.377,0.174-0.82,0.111-1.137-0.158l-1.475-1.265l-1.858,3.224
					c-0.17,0.297-0.474,0.492-0.813,0.527c-0.349,0.04-0.677-0.097-0.903-0.353l-1.475-1.661l-2.141,3.278
					c-0.184,0.282-0.492,0.461-0.831,0.479c-0.33,0.014-0.663-0.125-0.88-0.386l-1.807-2.2l-3.787,5.389
					C183.857,48.498,183.531,48.662,183.192,48.662z M184.255,25.987V44.24l2.658-3.783c0.191-0.271,0.498-0.438,0.83-0.449
					c0.339-0.019,0.649,0.13,0.862,0.385l1.774,2.16l2.109-3.23c0.18-0.278,0.479-0.454,0.811-0.479
					c0.345-0.027,0.653,0.108,0.873,0.354l1.419,1.6l1.765-3.057c0.157-0.274,0.43-0.465,0.74-0.517
					c0.318-0.052,0.633,0.036,0.871,0.24l0.692,0.592V19.822L184.255,25.987z"/>
			</g>
		</g>
	</g>
</g>
</svg>
